<svg width="48" height="42" viewBox="0 0 48 42" fill="none" xmlns="http://www.w3.org/2000/svg">
<path d="M3 0C1.34315 0 0 1.34315 0 3V39C0 40.6569 1.34315 42 3 42C4.65685 42 6 40.6569 6 39V3C6 1.34315 4.65685 0 3 0Z" fill="#6472F1"/>
<path d="M33.8787 27.8787C32.7071 29.0503 32.7071 30.9497 33.8787 32.1213C35.0502 33.2929 36.9497 33.2929 38.1213 32.1213L47.1213 23.1213C47.6839 22.5587 48 21.7957 48 21C48 20.2044 47.6839 19.4413 47.1213 18.8787L38.1213 9.87868C36.9497 8.70711 35.0503 8.70711 33.8787 9.87868C32.7071 11.0503 32.7071 12.9497 33.8787 14.1213L37.7574 18L15 18C13.3431 18 12 19.3432 12 21C12 22.6569 13.3431 24 15 24H37.7574L33.8787 27.8787Z" fill="#6472F1"/>
</svg>
