<svg width="48" height="48" viewBox="0 0 48 48" fill="none" xmlns="http://www.w3.org/2000/svg">
<path fill-rule="evenodd" clip-rule="evenodd" d="M28.4677 3.51283C27.3306 -1.17094 20.6694 -1.17094 19.5323 3.51282C18.7978 6.53848 15.3313 7.97433 12.6725 6.35426C8.55654 3.84637 3.84637 8.55654 6.35427 12.6725C7.97433 15.3313 6.53848 18.7978 3.51282 19.5323C-1.17094 20.6694 -1.17094 27.3306 3.51283 28.4677C6.53848 29.2022 7.97434 32.6687 6.35427 35.3275C3.84637 39.4435 8.55655 44.1536 12.6725 41.6457C15.3314 40.0257 18.7978 41.4615 19.5323 44.4872C20.6694 49.1709 27.3306 49.1709 28.4677 44.4872C29.2022 41.4615 32.6687 40.0257 35.3275 41.6457C39.4435 44.1536 44.1536 39.4435 41.6457 35.3275C40.0257 32.6687 41.4615 29.2022 44.4872 28.4677C49.1709 27.3306 49.1709 20.6694 44.4872 19.5323C41.4615 18.7978 40.0257 15.3313 41.6457 12.6725C44.1536 8.55654 39.4435 3.84637 35.3275 6.35427C32.6687 7.97433 29.2022 6.53848 28.4677 3.51283ZM24 33C28.9706 33 33 28.9706 33 24C33 19.0294 28.9706 15 24 15C19.0294 15 15 19.0294 15 24C15 28.9706 19.0294 33 24 33Z" fill="#6472F1"/>
</svg>
